# xmcd CD database file
#
# Track frame offsets:
#	150
#	15042
#	29847
#	43812
#	55727
#	75570
#	91760
#	104004
#	119802
#	135210
#
# Disc length: 2089 seconds
#
# Revision: 0
# Processed by: cddbd v1.5.2PL0 Copyright (c) Steve Scherf et al.
# Submitted via: CDex 1.70beta2
#
DISCID=7908270a
DTITLE=Harney, Jum - Cdn.- ON - My Home
DYEAR=2000
DGENRE=Country
TTITLE0=I Wanted You Then...
TTITLE1=Can't Sleep
TTITLE2=Last Chance
TTITLE3=Kept My Mind (On You)
TTITLE4=North Wind Blows
TTITLE5=Far Away
TTITLE6=Hwy 40 Blues
TTITLE7=My Heart Is Tired
TTITLE8=My Way Home
TTITLE9=Col. Harney's Opus
EXTD=YEAR: 2000
EXTT0=
EXTT1=
EXTT2=
EXTT3=
EXTT4=
EXTT5=
EXTT6=
EXTT7=
EXTT8=
EXTT9=
PLAYORDER=
